<?xml version="1.0" encoding="UTF-8"?>
<svg id="Layer_1" xmlns="http://www.w3.org/2000/svg" version="1.1" viewBox="0 0 276 118">
  <!-- Generator: Adobe Illustrator 30.0.0, SVG Export Plug-In . SVG Version: 2.1.1 Build 123)  -->
  <defs>
    <style>
      .st0 {
        stroke: #e84125;
        stroke-miterlimit: 10;
        stroke-width: .3px;
      }

      .st0, .st1 {
        fill: #e84125;
      }
    </style>
  </defs>
  <path class="st1" d="M62.6,101l-5,.6c-1.8.2-3.7.4-5.6.4s-3.8-.1-5.6-.4l-5-.6,1.3-9.9,5,.6c1.4.2,2.9.3,4.3.3s2.9,0,4.3-.3l5-.6,1.3,9.9ZM25.8,79.1c1.8,2.3,3.8,4.3,6.1,6.1l4,3-6.1,7.9-4-3c-3-2.3-5.6-5-7.9-7.9l-3-4,7.9-6.1,3,4ZM89.2,81.2l-3,4c-2.3,3-5,5.6-7.9,7.9l-4,3-6.1-7.9,4-3c2.3-1.8,4.3-3.8,6.1-6.1l3-4,7.9,6.1ZM9,59c0-1.9.1-3.8.4-5.6l.6-5,9.9,1.3-.6,5c-.2,1.4-.3,2.9-.3,4.3s0,2.9.3,4.3l.6,5-9.9,1.3-.6-5c-.2-1.8-.4-3.7-.4-5.6ZM85,59c0-1.5,0-2.9-.3-4.3l-.6-5,9.9-1.3.6,5c.2,1.8.4,3.7.4,5.6s-.1,3.8-.4,5.6l-.6,5-9.9-1.3.6-5c.2-1.4.3-2.9.3-4.3ZM35.9,29.8l-4,3c-2.3,1.8-4.3,3.8-6.1,6.1l-3,4-7.9-6.1,3-4c2.3-3,5-5.6,7.9-7.9l4-3,6.1,7.9ZM78.2,24.9c3,2.3,5.6,5,7.9,7.9l3,4-7.9,6.1-3-4c-1.8-2.3-3.8-4.3-6.1-6.1l-4-3,6.1-7.9,4,3ZM52,16c1.9,0,3.8.1,5.6.4l5,.6-1.3,9.9-5-.6c-1.4-.2-2.9-.3-4.3-.3s-2.9,0-4.3.3l-5,.6-1.3-9.9,5-.6c1.8-.2,3.7-.4,5.6-.4Z"/>
  <path class="st0" d="M146,34.1c6.2,0,11.2,5,11.2,11.1v27.4c0,6.2-5,11.1-11.2,11.1h-28.5c-6.2,0-11.2-5-11.2-11.1v-27.4c0-6.2,5-11.1,11.2-11.1h28.5ZM117.6,43.4c-1.1,0-1.9.9-1.9,1.9v27.4c0,1,.9,1.9,1.9,1.9h28.5c1.1,0,1.9-.9,1.9-1.9v-27.4c0-1-.9-1.9-1.9-1.9h-28.5Z"/>
  <path class="st0" d="M203.5,34.1v9.3h-27.9c-1.1,0-1.9.9-1.9,1.9v38.6h-9.3v-38.5c0-6.2,5-11.1,11.2-11.1h27.9v-.2Z"/>
  <path class="st0" d="M259.6,45.3v27.4c0,6.2-5,11.1-11.2,11.1h-39.7V17.9h9.3v16.3h30.4c6.2,0,11.2,5,11.2,11.1ZM250.3,45.3c0-1-.9-1.9-1.9-1.9h-28.5c-1.1,0-1.9.9-1.9,1.9v27.4c0,1,.9,1.9,1.9,1.9h28.5c1.1,0,1.9-.9,1.9-1.9v-27.4Z"/>
</svg>